<svg clip-rule="evenodd" fill-rule="evenodd" height="512" stroke-linejoin="round" stroke-miterlimit="2" viewBox="0 0 32 32" width="512" xmlns="http://www.w3.org/2000/svg"><path d="m30 5c0-1.657-1.343-3-3-3h-22c-1.657 0-3 1.343-3 3v22c0 1.657 1.343 3 3 3h22c1.657 0 3-1.343 3-3zm-2 0v22c0 .552-.448 1-1 1h-22c-.552 0-1-.448-1-1v-22c0-.552.448-1 1-1h22c.552 0 1 .448 1 1zm-10 20h7c.552 0 1-.448 1-1s-.448-1-1-1h-7c-.552 0-1 .448-1 1s.448 1 1 1zm-11 0h7c.552 0 1-.448 1-1s-.448-1-1-1h-7c-.552 0-1 .448-1 1s.448 1 1 1zm11-4h7c.552 0 1-.448 1-1s-.448-1-1-1h-7c-.552 0-1 .448-1 1s.448 1 1 1zm-11 0h7c.552 0 1-.448 1-1s-.448-1-1-1h-7c-.552 0-1 .448-1 1s.448 1 1 1zm11-4h7c.552 0 1-.448 1-1s-.448-1-1-1h-7c-.552 0-1 .448-1 1s.448 1 1 1zm-11 0h7c.552 0 1-.448 1-1s-.448-1-1-1h-7c-.552 0-1 .448-1 1s.448 1 1 1zm19-9c0-.552-.448-1-1-1h-18c-.552 0-1 .448-1 1v4c0 .552.448 1 1 1h18c.552 0 1-.448 1-1zm-2 1v2h-16v-2z"/></svg>