<svg fill="none" height="512" viewBox="0 0 24 24" width="512" xmlns="http://www.w3.org/2000/svg"><g fill="rgb(0,0,0)"><path clip-rule="evenodd" d="m9.8889 11.7222c0 1.2273-.99492 2.2222-2.22222 2.2222s-2.22222-.9949-2.22222-2.2222.99492-2.2222 2.22222-2.2222 2.22222.9949 2.22222 2.2222zm-1 0c0 .675-.5472 1.2222-1.22222 1.2222-.67501 0-1.22222-.5472-1.22222-1.2222s.54721-1.2222 1.22222-1.2222c.67502 0 1.22222.5472 1.22222 1.2222z" fill-rule="evenodd"/><path d="m5.5 17.5c0-1.1966.97005-2.1667 2.16667-2.1667 1.19661 0 2.16666.9701 2.16666 2.1667h.99997c0-1.7489-1.41773-3.1667-3.16663-3.1667-1.74891 0-3.16667 1.4178-3.16667 3.1667z"/><g clip-rule="evenodd" fill-rule="evenodd"><path d="m19 10.5c0 .2761-.2239.5-.5.5h-5.5c-.2761 0-.5-.2239-.5-.5 0-.2761.2239-.5.5-.5h5.5c.2761 0 .5.2239.5.5z"/><path d="m19 13.5c0 .2761-.2239.5-.5.5h-5.5c-.2761 0-.5-.2239-.5-.5 0-.2761.2239-.5.5-.5h5.5c.2761 0 .5.2239.5.5z"/><path d="m19 16.5c0 .2761-.2239.5-.5.5h-5.5c-.2761 0-.5-.2239-.5-.5 0-.2761.2239-.5.5-.5h5.5c.2761 0 .5.2239.5.5z"/><path d="m9 4c-.82843 0-1.5.67157-1.5 1.5h-3c-1.38071 0-2.5 1.11929-2.5 2.5v9.5c0 1.3807 1.11929 2.5 2.5 2.5h15c1.3807 0 2.5-1.1193 2.5-2.5v-9.5c0-1.38071-1.1193-2.5-2.5-2.5h-3c0-.82843-.6716-1.5-1.5-1.5zm7.5 2.5c0 .82843-.6716 1.5-1.5 1.5h-6c-.82843 0-1.5-.67157-1.5-1.5h-3c-.82843 0-1.5.67157-1.5 1.5v9.5c0 .8284.67157 1.5 1.5 1.5h15c.8284 0 1.5-.6716 1.5-1.5v-9.5c0-.82843-.6716-1.5-1.5-1.5zm-8-1c0-.27614.22386-.5.5-.5h6c.2761 0 .5.22386.5.5v1c0 .27614-.2239.5-.5.5h-6c-.27614 0-.5-.22386-.5-.5z"/></g></g></svg>