<svg id="Layer_1" enable-background="new 0 0 512 512" height="512" viewBox="0 0 512 512" width="512" xmlns="http://www.w3.org/2000/svg"><path d="m286.044 334.555-10.438 10.546v-48.132c5.776-2.078 9.926-7.596 9.926-14.079v-20.772c0-8.256-6.717-14.973-14.974-14.973h-184.189c-8.257 0-14.974 6.717-14.974 14.973v20.772c0 6.483 4.149 12.001 9.926 14.079v86.564l-9.295 9.786h-13.39c-3.221-7.642-10.788-13.021-19.588-13.021h-17.8c-11.716 0-21.248 9.531-21.248 21.247v78.632c0 11.716 9.532 21.247 21.248 21.247h17.8c8.8 0 16.366-5.379 19.587-13.021h151.269c17.874 0 33.59-6.697 45.449-19.367l98.819-105.57c10.87-11.611 9.54-32.994-2.791-44.863-5.952-5.731-28.255-21.513-65.337 15.952zm-47.536 48.028c-2.926 2.957-5.711 5.299-8.502 7.15.641-2.451.982-5.022.982-7.671 0-15.14-11.568-27.802-26.854-30.034v-54.166h55.472v63.403zm31.024-100.72h-65.398v-18.719h65.398zm-81.398-18.718v89.295c-7.946.243-13.966-.094-19.341-.664v-88.632h19.341zm-90.813 34.718h55.472v51.792c-3.441-.431-7.124-.807-11.329-1.026-19.055-.993-33.711 8.777-44.143 18.43zm-9.926-34.718h65.398v18.719h-65.398zm-43.101 217.032c0 2.844-2.403 5.247-5.247 5.247h-17.8c-2.845 0-5.248-2.403-5.248-5.247v-78.632c0-2.844 2.403-5.247 5.248-5.247h17.8c2.844 0 5.247 2.403 5.247 5.247zm298.197-127.645-98.82 105.57c-8.882 9.489-20.243 14.301-33.768 14.301h-149.609v-63.084h15.166c2.193 0 4.29-.9 5.8-2.49l21.659-22.803c13.381-14.088 25.002-20.073 37.715-19.418 6.26.325 11.22 1.033 16.471 1.783 10.735 1.534 21.833 3.119 43.607 1.344 8.173.645 14.275 6.728 14.275 14.327 0 7.913-6.437 14.351-14.349 14.351-.007 0-.013.001-.019.001h-57.656c-4.418 0-8 3.582-8 8s3.582 8 8 8h57.675c.007 0 .014-.001.021-.001 20.001-.002 33.771-2.966 49.22-18.575l47.536-48.027c18.073-18.261 34.099-24.123 42.87-15.681 6.039 5.812 7.153 17.118 2.206 22.402zm147.841-341.956h-18.366c-8.946 0-16.642 5.449-19.945 13.202h-154.43c-18.371 0-34.523 6.882-46.71 19.902l-43.06 46.003h-72.974c-2.122 0-4.157.843-5.657 2.343-1.5 1.501-2.343 3.535-2.343 5.657v125.882c0 4.418 3.582 8 8 8h230.395c4.418 0 8-3.582 8-8v-64.361c36.948-3.01 52.358-14.996 67.433-37.826h11.16c3.19 7.999 11.009 13.669 20.132 13.669h18.366c11.948 0 21.668-9.721 21.668-21.669v-81.133c-.001-11.948-9.721-21.669-21.669-21.669zm-220.54 154.53c-2.056 9.01-10.158 15.782-19.748 15.782-11.173 0-20.263-9.09-20.263-20.264 0-11.173 9.09-20.263 20.263-20.263 5.303 0 10.235 2 13.973 5.582-.126.854-.198 1.701-.198 2.539.001 8.165 2.431 13.336 5.973 16.624zm1.243-34.014c-6.073-4.306-13.405-6.731-20.99-6.731-19.996 0-36.263 16.268-36.263 36.263 0 19.996 16.268 36.264 36.263 36.264 16.439 0 30.44-11.118 34.827-26.225 2.298.187 4.478.212 6.343.232 8.499.055 16.345-2.701 24.036-8.524 8.465-6.41 27.561-27.149 41.992-43.389v56.166c-21.53 2.56-38.796 19.192-42.315 40.418h-131.975c-3.397-20.495-19.611-36.709-40.106-40.106v-29.67c20.495-3.397 36.708-19.611 40.106-40.106l110.228.001c-1.301 1.412-2.651 2.862-4.018 4.33-7.495 8.048-13.72 14.923-18.128 21.077zm-104.407-25.408c-2.935 11.655-12.127 20.846-23.782 23.781v-23.782zm-23.781 86.1c11.655 2.935 20.847 12.127 23.782 23.782h-23.782zm188.404 23.781c3.118-12.381 13.299-21.977 25.991-24.251v24.251zm105.061-110.187c-2.75 0-5.306 1.412-6.771 3.738-12.901 20.498-23.223 31.128-56.299 34.035v-35.773c4.057.712 8.415 1.283 13.03 1.283 12.044 0 25.796-3.869 40.241-19.146 3.036-3.21 2.894-8.273-.316-11.309-3.211-3.038-8.274-2.895-11.309.316-16.65 17.608-30.096 14.909-44.333 12.052-1.292-.26-2.568-.516-3.83-.754-2.913-.549-5.75.561-7.552 2.658l-.004-.004c-16.821 19.617-44.565 50.313-53.577 57.138-4.891 3.703-9.255 5.332-14.212 5.28-11.56-.119-11.56-.835-11.56-6.412 0-.108.066-2.752 5.809-10.236 4.189-5.458 9.808-11.492 15.243-17.327 6.466-6.944 12.574-13.503 16.06-18.887 1.593-2.46 1.713-5.595.313-8.17-1.4-2.574-4.097-4.178-7.028-4.178h-80.48l32.826-35.07c9.214-9.845 21-14.836 35.029-14.836h152.706v65.6h-13.986zm59.688 8c0 3.126-2.542 5.669-5.668 5.669h-18.366c-3.126 0-5.669-2.543-5.669-5.669v-81.133c0-3.126 2.543-5.669 5.669-5.669h18.366c3.125 0 5.668 2.543 5.668 5.669z"/></svg>