<svg width="24" height="24" viewBox="0 0 24 24" fill="none" xmlns="http://www.w3.org/2000/svg">
<path d="M12 21.9995C13.1 21.9995 14 21.0995 14 19.9995V18.9995L9.99998 19L9.99999 19.9995C9.99999 20.5299 10.2107 21.0387 10.5858 21.4137C10.9609 21.7888 11.4696 21.9995 12 21.9995ZM18 15.9995V10.9995C18 7.92951 16.36 5.35951 13.5 4.67951V3.99951C13.5 3.16951 12.83 2.49951 12 2.49951C11.17 2.49951 10.5 3.16951 10.5 3.99951V4.67951C7.62999 5.35951 5.99999 7.91951 5.99999 10.9995V15.9995L4.70999 17.2895C4.07999 17.9195 4.51999 18.9995 5.40999 18.9995H18.58C19.47 18.9995 19.92 17.9195 19.29 17.2895L18 15.9995Z" stroke="white" stroke-width="1.5"/>
</svg>
