<svg fill="none" height="512" viewBox="0 0 24 24" width="512" xmlns="http://www.w3.org/2000/svg"><g clip-rule="evenodd" fill="rgb(0,0,0)" fill-rule="evenodd"><path d="m11.6117 2.65791c.2351-.15675.5414-.15675.7766 0l8.3394 5.55963c.5763.38417.3043 1.28243-.3883 1.28243h-16.67888c-.69259 0-.96456-.89825-.38829-1.28243zm.3883.94299-7.34865 4.89907h14.69725zm8.173 5.44869c-.0001-.0001-.0003-.00019-.0004-.00029z"/><path d="m18 17c-.2761 0-.5-.2239-.5-.5v-5.5c0-.2761.2239-.5.5-.5s.5.2239.5.5v5.5c0 .2761-.2239.5-.5.5z"/><path d="m14 17c-.2761 0-.5-.2239-.5-.5v-5.5c0-.2761.2239-.5.5-.5s.5.2239.5.5v5.5c0 .2761-.2239.5-.5.5z"/><path d="m10 17c-.27614 0-.5-.2239-.5-.5v-5.5c0-.2761.22386-.5.5-.5.2761 0 .5.2239.5.5v5.5c0 .2761-.2239.5-.5.5z"/><path d="m6 17c-.27614 0-.5-.2239-.5-.5v-5.5c0-.2761.22386-.5.5-.5s.5.2239.5.5v5.5c0 .2761-.22386.5-.5.5z"/><path d="m3.5 19.5c0-.8284.67157-1.5 1.5-1.5h14c.8284 0 1.5.6716 1.5 1.5s-.6716 1.5-1.5 1.5h-14c-.82843 0-1.5-.6716-1.5-1.5zm1.5-.5c-.27614 0-.5.2239-.5.5s.22386.5.5.5h14c.2761 0 .5-.2239.5-.5s-.2239-.5-.5-.5z"/></g></svg>